<svg width="44" height="44" viewBox="0 0 44 44" fill="none" xmlns="http://www.w3.org/2000/svg">
<g clip-path="url(#clip0_23_9820)">
<path d="M6.28655 12.5713H12.5723V6.28557H6.28655V12.5713Z" fill="black"/>
<path d="M6.28655 6.28564H12.5723V-7.00951e-05H6.28655V6.28564Z" fill="black"/>
</g>
<g clip-path="url(#clip1_23_9820)">
<path d="M31.4277 6.28557L31.4277 12.5713L37.7134 12.5713L37.7134 6.28557L31.4277 6.28557Z" fill="black"/>
<path d="M37.7148 6.28557L37.7148 12.5713L44.0006 12.5713L44.0006 6.28557L37.7148 6.28557Z" fill="black"/>
</g>
<g clip-path="url(#clip2_23_9820)">
<path d="M6.28571 31.4287H0V37.7144H6.28571V31.4287Z" fill="black"/>
<path d="M6.28571 37.7144H0V44.0001H6.28571V37.7144Z" fill="black"/>
</g>
<g clip-path="url(#clip3_23_9820)">
<path d="M-0.000558376 17.5713H6.28516V11.2856H-0.000558376V17.5713Z" fill="black"/>
<path d="M-0.000558376 11.2856H6.28516V4.99993H-0.000558376V11.2856Z" fill="black"/>
</g>
<path d="M6.28516 40.8572C6.28516 42.593 7.69226 44.0001 9.42801 44.0001C11.1638 44.0001 12.5709 42.593 12.5709 40.8572C12.5709 39.1215 11.1638 37.7144 9.42801 37.7144C7.69226 37.7144 6.28516 39.1215 6.28516 40.8572Z" fill="black"/>
<g clip-path="url(#clip4_23_9820)">
<path d="M12.5709 18.8569H6.28516V25.1426H12.5709V18.8569Z" fill="black"/>
<path d="M18.858 18.8569H12.5723V25.1426H18.858V18.8569Z" fill="black"/>
</g>
<path d="M25.1426 21.9998C25.1426 23.7355 26.5497 25.1426 28.2854 25.1426C30.0212 25.1426 31.4283 23.7355 31.4283 21.9998C31.4283 20.264 30.0212 18.8569 28.2854 18.8569C26.5497 18.8569 25.1426 20.264 25.1426 21.9998Z" fill="black"/>
<path d="M18.8574 34.5716C18.8574 36.3073 20.2645 37.7144 22.0003 37.7144C23.736 37.7144 25.1431 36.3073 25.1431 34.5716C25.1431 32.8358 23.736 31.4287 22.0003 31.4287C20.2645 31.4287 18.8574 32.8358 18.8574 34.5716Z" fill="black"/>
<g clip-path="url(#clip5_23_9820)">
<path d="M25.1431 37.7144H18.8574V44.0001H25.1431V37.7144Z" fill="black"/>
<path d="M31.4283 37.7144H25.1426V44.0001H31.4283V37.7144Z" fill="black"/>
</g>
<g clip-path="url(#clip6_23_9820)">
<path d="M37.7134 31.4287H31.4277V37.7144H37.7134V31.4287Z" fill="black"/>
<path d="M44.0006 31.4287H37.7148V37.7144H44.0006V31.4287Z" fill="black"/>
</g>
<path d="M37.7148 21.9998C37.7148 23.7355 39.1219 25.1426 40.8577 25.1426C42.5935 25.1426 44.0006 23.7355 44.0006 21.9998C44.0006 20.264 42.5935 18.8569 40.8577 18.8569C39.1219 18.8569 37.7148 20.264 37.7148 21.9998Z" fill="black"/>
<path d="M25.1426 3.14286C25.1426 4.87861 26.5497 6.28571 28.2854 6.28571C30.0212 6.28571 31.4283 4.87861 31.4283 3.14286C31.4283 1.4071 30.0212 0 28.2854 0C26.5497 0 25.1426 1.4071 25.1426 3.14286Z" fill="black"/>
<g clip-path="url(#clip7_23_9820)">
<path d="M18.858 25.1431H12.5723V31.4288H18.858V25.1431Z" fill="black"/>
<path d="M25.1431 25.1431H18.8574V31.4288H25.1431V25.1431Z" fill="black"/>
<path d="M31.4283 25.1431H25.1426V31.4288H31.4283V25.1431Z" fill="black"/>
</g>
<g clip-path="url(#clip8_23_9820)">
<path d="M25.1431 12.5713H18.8574V18.857H25.1431V12.5713Z" fill="black"/>
<path d="M31.4283 12.5713H25.1426V18.857H31.4283V12.5713Z" fill="black"/>
<path d="M37.7134 12.5713H31.4277V18.857H37.7134V12.5713Z" fill="black"/>
</g>
<defs>
<clipPath id="clip0_23_9820">
<rect x="6.28711" width="6.28571" height="12.5714" rx="3.14286" fill="white"/>
</clipPath>
<clipPath id="clip1_23_9820">
<rect x="44" y="6.28564" width="6.28571" height="12.5714" rx="3.14286" transform="rotate(90 44 6.28564)" fill="white"/>
</clipPath>
<clipPath id="clip2_23_9820">
<rect y="31.4287" width="6.28571" height="12.5714" rx="3.14286" fill="white"/>
</clipPath>
<clipPath id="clip3_23_9820">
<rect y="5" width="6.28571" height="12.5714" rx="3.14286" fill="white"/>
</clipPath>
<clipPath id="clip4_23_9820">
<rect x="6.28516" y="18.8569" width="12.5728" height="6.28571" rx="3.14286" fill="white"/>
</clipPath>
<clipPath id="clip5_23_9820">
<rect x="18.8574" y="37.7144" width="12.5709" height="6.28571" rx="3.14286" fill="white"/>
</clipPath>
<clipPath id="clip6_23_9820">
<rect x="31.4277" y="31.4287" width="12.5728" height="6.28571" rx="3.14286" fill="white"/>
</clipPath>
<clipPath id="clip7_23_9820">
<rect x="12.5723" y="25.1431" width="18.856" height="6.28571" rx="3.14286" fill="white"/>
</clipPath>
<clipPath id="clip8_23_9820">
<rect x="18.8574" y="12.5713" width="18.856" height="6.28571" rx="3.14286" fill="white"/>
</clipPath>
</defs>
</svg>
