<svg width="45" height="44" viewBox="0 0 45 44" fill="none" xmlns="http://www.w3.org/2000/svg">
<path d="M13.5904 10.191L10.1934 6.79395L6.79631 10.191L10.1934 13.588L13.5904 10.191Z" fill="black"/>
<path d="M15.4604 30.4102L18.8574 27.0132L15.4604 23.6161L12.0633 27.0132L15.4604 30.4102Z" fill="black"/>
<path d="M13.5904 3.39705L10.1934 0L6.79631 3.39705L10.1934 6.7941L13.5904 3.39705Z" fill="black"/>
<path d="M6.79549 10.191L3.39844 6.79395L0.00138774 10.191L3.39844 13.588L6.79549 10.191Z" fill="black"/>
<path d="M15.4604 23.6153L18.8574 20.2183L15.4604 16.8212L12.0633 20.2183L15.4604 23.6153Z" fill="black"/>
<path d="M6.79549 16.9849L3.39844 13.5879L0.00138774 16.9849L3.39844 20.382L6.79549 16.9849Z" fill="black"/>
<path d="M3.399 30.4111L0.00195312 33.8081L3.399 37.2052L6.79605 33.8081L3.399 30.4111Z" fill="black"/>
<path d="M3.399 37.206L0.00195312 40.603L3.399 44.0001L6.79605 40.603L3.399 37.206Z" fill="black"/>
<path d="M10.192 37.206L6.79492 40.603L10.192 44.0001L13.589 40.603L10.192 37.206Z" fill="black"/>
<path d="M8.6674 23.6153L12.0645 20.2183L8.6674 16.8212L5.27035 20.2183L8.6674 23.6153Z" fill="black"/>
<path d="M32.1412 13.4273L28.7441 10.0303L25.3471 13.4273L28.7441 16.8244L32.1412 13.4273Z" fill="black"/>
<path d="M25.3463 13.4273L21.9492 10.0303L18.5522 13.4273L21.9492 16.8244L25.3463 13.4273Z" fill="black"/>
<path d="M38.9342 13.4273L35.5371 10.0303L32.1401 13.4273L35.5371 16.8244L38.9342 13.4273Z" fill="black"/>
<path d="M21.9994 37.2047L25.3965 33.8076L21.9994 30.4106L18.6024 33.8076L21.9994 37.2047Z" fill="black"/>
<path d="M21.9994 30.4097L25.3965 27.0127L21.9994 23.6156L18.6024 27.0127L21.9994 30.4097Z" fill="black"/>
<path d="M21.9994 43.9996L25.3965 40.6025L21.9994 37.2055L18.6024 40.6025L21.9994 43.9996Z" fill="black"/>
<path d="M33.81 37.2061L37.207 33.8091L33.81 30.412L30.4129 33.8091L33.81 37.2061Z" fill="black"/>
<path d="M32.19 40.6031L28.793 37.2061L25.3959 40.6031L28.793 44.0002L32.19 40.6031Z" fill="black"/>
<path d="M44.0006 33.8092L40.6035 30.4121L37.2065 33.8092L40.6035 37.2062L44.0006 33.8092Z" fill="black"/>
<path d="M44.2545 20.2213L40.8574 16.8242L37.4604 20.2213L40.8574 23.6183L44.2545 20.2213Z" fill="black"/>
<path d="M25.397 3.39705L22 0L18.603 3.39705L22 6.7941L25.397 3.39705Z" fill="black"/>
<path d="M44.0006 6.63338L40.6035 3.23633L37.2065 6.63338L40.6035 10.0304L44.0006 6.63338Z" fill="black"/>
<path d="M28.7416 30.4112L32.1387 27.0142L28.7416 23.6171L25.3446 27.0142L28.7416 30.4112Z" fill="black"/>
<path d="M37.2076 6.63338L33.8105 3.23633L30.4135 6.63338L33.8105 10.0304L37.2076 6.63338Z" fill="black"/>
<path d="M28.7416 23.6182L32.1387 20.2212L28.7416 16.8241L25.3446 20.2212L28.7416 23.6182Z" fill="black"/>
</svg>
