<svg width="44" height="44" viewBox="0 0 44 44" fill="none" xmlns="http://www.w3.org/2000/svg">
<path d="M12.5723 9.42843C12.5723 7.69268 11.1652 6.28557 9.42941 6.28557C7.69366 6.28557 6.28655 7.69268 6.28655 9.42843C6.28655 11.1642 7.69366 12.5713 9.42941 12.5713C11.1652 12.5713 12.5723 11.1642 12.5723 9.42843Z" fill="black"/>
<path d="M12.5723 3.14279C12.5723 1.40703 11.1652 -7.00951e-05 9.42941 -7.00951e-05C7.69366 -7.00951e-05 6.28655 1.40703 6.28655 3.14279C6.28655 4.87854 7.69366 6.28564 9.42941 6.28564C11.1652 6.28564 12.5723 4.87854 12.5723 3.14279Z" fill="black"/>
<path d="M0 34.5716C0 36.3073 1.4071 37.7144 3.14286 37.7144C4.87861 37.7144 6.28571 36.3073 6.28571 34.5716C6.28571 32.8358 4.87861 31.4287 3.14286 31.4287C1.4071 31.4287 0 32.8358 0 34.5716Z" fill="black"/>
<path d="M0 40.8572C0 42.593 1.4071 44.0001 3.14286 44.0001C4.87861 44.0001 6.28571 42.593 6.28571 40.8572C6.28571 39.1215 4.87861 37.7144 3.14286 37.7144C1.4071 37.7144 0 39.1215 0 40.8572Z" fill="black"/>
<path d="M6.28516 9.42843C6.28516 7.69268 4.87805 6.28557 3.1423 6.28557C1.40655 6.28557 -0.000558376 7.69268 -0.000558376 9.42843C-0.000558376 11.1642 1.40655 12.5713 3.1423 12.5713C4.87805 12.5713 6.28516 11.1642 6.28516 9.42843Z" fill="black"/>
<path d="M6.28516 21.9998C6.28516 23.7355 7.69226 25.1426 9.42801 25.1426C11.1638 25.1426 12.5709 23.7355 12.5709 21.9998C12.5709 20.264 11.1638 18.8569 9.42801 18.8569C7.69226 18.8569 6.28516 20.264 6.28516 21.9998Z" fill="black"/>
<path d="M0 15.7141C0 17.4499 1.4071 18.857 3.14286 18.857C4.87861 18.857 6.28571 17.4499 6.28571 15.7141C6.28571 13.9784 4.87861 12.5713 3.14286 12.5713C1.4071 12.5713 0 13.9784 0 15.7141Z" fill="black"/>
<path d="M6.28516 40.8572C6.28516 42.593 7.69226 44.0001 9.42801 44.0001C11.1638 44.0001 12.5709 42.593 12.5709 40.8572C12.5709 39.1215 11.1638 37.7144 9.42801 37.7144C7.69226 37.7144 6.28516 39.1215 6.28516 40.8572Z" fill="black"/>
<path d="M12.5723 21.9998C12.5723 23.7355 13.9794 25.1426 15.7151 25.1426C17.4509 25.1426 18.858 23.7355 18.858 21.9998C18.858 20.264 17.4509 18.8569 15.7151 18.8569C13.9794 18.8569 12.5723 20.264 12.5723 21.9998Z" fill="black"/>
<path d="M12.5723 28.2859C12.5723 30.0217 13.9794 31.4288 15.7151 31.4288C17.4509 31.4288 18.858 30.0217 18.858 28.2859C18.858 26.5502 17.4509 25.1431 15.7151 25.1431C13.9794 25.1431 12.5723 26.5502 12.5723 28.2859Z" fill="black"/>
<path d="M25.1426 21.9998C25.1426 23.7355 26.5497 25.1426 28.2854 25.1426C30.0212 25.1426 31.4283 23.7355 31.4283 21.9998C31.4283 20.264 30.0212 18.8569 28.2854 18.8569C26.5497 18.8569 25.1426 20.264 25.1426 21.9998Z" fill="black"/>
<path d="M31.4277 34.5716C31.4277 36.3073 32.8348 37.7144 34.5706 37.7144C36.3063 37.7144 37.7134 36.3073 37.7134 34.5716C37.7134 32.8358 36.3063 31.4287 34.5706 31.4287C32.8348 31.4287 31.4277 32.8358 31.4277 34.5716Z" fill="black"/>
<path d="M18.8574 15.7141C18.8574 17.4499 20.2645 18.857 22.0003 18.857C23.736 18.857 25.1431 17.4499 25.1431 15.7141C25.1431 13.9784 23.736 12.5713 22.0003 12.5713C20.2645 12.5713 18.8574 13.9784 18.8574 15.7141Z" fill="black"/>
<path d="M18.8574 28.2859C18.8574 30.0217 20.2645 31.4288 22.0003 31.4288C23.736 31.4288 25.1431 30.0217 25.1431 28.2859C25.1431 26.5502 23.736 25.1431 22.0003 25.1431C20.2645 25.1431 18.8574 26.5502 18.8574 28.2859Z" fill="black"/>
<path d="M18.8574 34.5716C18.8574 36.3073 20.2645 37.7144 22.0003 37.7144C23.736 37.7144 25.1431 36.3073 25.1431 34.5716C25.1431 32.8358 23.736 31.4287 22.0003 31.4287C20.2645 31.4287 18.8574 32.8358 18.8574 34.5716Z" fill="black"/>
<path d="M18.8574 40.8572C18.8574 42.593 20.2645 44.0001 22.0003 44.0001C23.736 44.0001 25.1431 42.593 25.1431 40.8572C25.1431 39.1215 23.736 37.7144 22.0003 37.7144C20.2645 37.7144 18.8574 39.1215 18.8574 40.8572Z" fill="black"/>
<path d="M25.1426 40.8572C25.1426 42.593 26.5497 44.0001 28.2854 44.0001C30.0212 44.0001 31.4283 42.593 31.4283 40.8572C31.4283 39.1215 30.0212 37.7144 28.2854 37.7144C26.5497 37.7144 25.1426 39.1215 25.1426 40.8572Z" fill="black"/>
<path d="M37.7148 34.5716C37.7148 36.3073 39.1219 37.7144 40.8577 37.7144C42.5935 37.7144 44.0006 36.3073 44.0006 34.5716C44.0006 32.8358 42.5935 31.4287 40.8577 31.4287C39.1219 31.4287 37.7148 32.8358 37.7148 34.5716Z" fill="black"/>
<path d="M37.7148 21.9998C37.7148 23.7355 39.1219 25.1426 40.8577 25.1426C42.5935 25.1426 44.0006 23.7355 44.0006 21.9998C44.0006 20.264 42.5935 18.8569 40.8577 18.8569C39.1219 18.8569 37.7148 20.264 37.7148 21.9998Z" fill="black"/>
<path d="M25.1426 3.14286C25.1426 4.87861 26.5497 6.28571 28.2854 6.28571C30.0212 6.28571 31.4283 4.87861 31.4283 3.14286C31.4283 1.4071 30.0212 0 28.2854 0C26.5497 0 25.1426 1.4071 25.1426 3.14286Z" fill="black"/>
<path d="M25.1426 15.7141C25.1426 17.4499 26.5497 18.857 28.2854 18.857C30.0212 18.857 31.4283 17.4499 31.4283 15.7141C31.4283 13.9784 30.0212 12.5713 28.2854 12.5713C26.5497 12.5713 25.1426 13.9784 25.1426 15.7141Z" fill="black"/>
<path d="M25.1426 28.2859C25.1426 30.0217 26.5497 31.4288 28.2854 31.4288C30.0212 31.4288 31.4283 30.0217 31.4283 28.2859C31.4283 26.5502 30.0212 25.1431 28.2854 25.1431C26.5497 25.1431 25.1426 26.5502 25.1426 28.2859Z" fill="black"/>
<path d="M31.4277 9.4285C31.4277 11.1643 32.8348 12.5714 34.5706 12.5714C36.3063 12.5714 37.7134 11.1643 37.7134 9.4285C37.7134 7.69275 36.3063 6.28564 34.5706 6.28564C32.8348 6.28564 31.4277 7.69275 31.4277 9.4285Z" fill="black"/>
<path d="M31.4277 15.7141C31.4277 17.4499 32.8348 18.857 34.5706 18.857C36.3063 18.857 37.7134 17.4499 37.7134 15.7141C37.7134 13.9784 36.3063 12.5713 34.5706 12.5713C32.8348 12.5713 31.4277 13.9784 31.4277 15.7141Z" fill="black"/>
<path d="M37.7148 9.4285C37.7148 11.1643 39.1219 12.5714 40.8577 12.5714C42.5935 12.5714 44.0006 11.1643 44.0006 9.4285C44.0006 7.69275 42.5935 6.28564 40.8577 6.28564C39.1219 6.28564 37.7148 7.69275 37.7148 9.4285Z" fill="black"/>
</svg>
