<svg width="44" height="44" viewBox="0 0 44 44" fill="none" xmlns="http://www.w3.org/2000/svg">
<path d="M13.2148 9.96387C13.2148 8.72123 12.2075 7.71387 10.9648 7.71387C9.7222 7.71387 8.71484 8.72123 8.71484 9.96387C8.71484 11.2065 9.7222 12.2139 10.9648 12.2139C12.2075 12.2139 13.2148 11.2065 13.2148 9.96387Z" fill="black"/>
<path d="M13.2148 3.67871C13.2148 2.43607 12.2075 1.42871 10.9648 1.42871C9.7222 1.42871 8.71484 2.43607 8.71484 3.67871C8.71484 4.92135 9.7222 5.92871 10.9648 5.92871C12.2075 5.92871 13.2148 4.92135 13.2148 3.67871Z" fill="black"/>
<path d="M0.642578 34.3213C0.642578 35.5639 1.64994 36.5713 2.89258 36.5713C4.13522 36.5713 5.14258 35.5639 5.14258 34.3213C5.14258 33.0786 4.13522 32.0713 2.89258 32.0713C1.64994 32.0713 0.642578 33.0786 0.642578 34.3213Z" fill="black"/>
<path d="M0.642578 40.6074C0.642578 41.8501 1.64994 42.8574 2.89258 42.8574C4.13522 42.8574 5.14258 41.8501 5.14258 40.6074C5.14258 39.3648 4.13522 38.3574 2.89258 38.3574C1.64994 38.3574 0.642578 39.3648 0.642578 40.6074Z" fill="black"/>
<path d="M6.92773 9.96387C6.92773 8.72123 5.92038 7.71387 4.67773 7.71387C3.43509 7.71387 2.42773 8.72123 2.42773 9.96387C2.42773 11.2065 3.43509 12.2139 4.67773 12.2139C5.92038 12.2139 6.92773 11.2065 6.92773 9.96387Z" fill="black"/>
<path d="M6.92773 21.75C6.92773 22.9926 7.93509 24 9.17773 24C10.4204 24 11.4277 22.9926 11.4277 21.75C11.4277 20.5074 10.4204 19.5 9.17773 19.5C7.93509 19.5 6.92773 20.5074 6.92773 21.75Z" fill="black"/>
<path d="M2.42773 15.4639C2.42773 16.7065 3.43509 17.7139 4.67773 17.7139C5.92038 17.7139 6.92773 16.7065 6.92773 15.4639C6.92773 14.2212 5.92038 13.2139 4.67773 13.2139C3.43509 13.2139 2.42773 14.2212 2.42773 15.4639Z" fill="black"/>
<path d="M6.92773 40.6074C6.92773 41.8501 7.93509 42.8574 9.17773 42.8574C10.4204 42.8574 11.4277 41.8501 11.4277 40.6074C11.4277 39.3648 10.4204 38.3574 9.17773 38.3574C7.93509 38.3574 6.92773 39.3648 6.92773 40.6074Z" fill="black"/>
<path d="M13.2148 21.75C13.2148 22.9926 14.2222 24 15.4648 24C16.7075 24 17.7148 22.9926 17.7148 21.75C17.7148 20.5074 16.7075 19.5 15.4648 19.5C14.2222 19.5 13.2148 20.5074 13.2148 21.75Z" fill="black"/>
<path d="M13.2148 28.0361C13.2148 29.2788 14.2222 30.2861 15.4648 30.2861C16.7075 30.2861 17.7148 29.2788 17.7148 28.0361C17.7148 26.7935 16.7075 25.7861 15.4648 25.7861C14.2222 25.7861 13.2148 26.7935 13.2148 28.0361Z" fill="black"/>
<path d="M25.7852 21.75C25.7852 22.9926 26.7925 24 28.0352 24C29.2778 24 30.2852 22.9926 30.2852 21.75C30.2852 20.5074 29.2778 19.5 28.0352 19.5C26.7925 19.5 25.7852 20.5074 25.7852 21.75Z" fill="black"/>
<path d="M32.0703 34.3213C32.0703 35.5639 33.0777 36.5713 34.3203 36.5713C35.563 36.5713 36.5703 35.5639 36.5703 34.3213C36.5703 33.0786 35.563 32.0713 34.3203 32.0713C33.0777 32.0713 32.0703 33.0786 32.0703 34.3213Z" fill="black"/>
<path d="M19.5 15.4639C19.5 16.7065 20.5074 17.7139 21.75 17.7139C22.9926 17.7139 24 16.7065 24 15.4639C24 14.2212 22.9926 13.2139 21.75 13.2139C20.5074 13.2139 19.5 14.2212 19.5 15.4639Z" fill="black"/>
<path d="M19.5 28.0361C19.5 29.2788 20.5074 30.2861 21.75 30.2861C22.9926 30.2861 24 29.2788 24 28.0361C24 26.7935 22.9926 25.7861 21.75 25.7861C20.5074 25.7861 19.5 26.7935 19.5 28.0361Z" fill="black"/>
<path d="M19.5 34.3213C19.5 35.5639 20.5074 36.5713 21.75 36.5713C22.9926 36.5713 24 35.5639 24 34.3213C24 33.0786 22.9926 32.0713 21.75 32.0713C20.5074 32.0713 19.5 33.0786 19.5 34.3213Z" fill="black"/>
<path d="M19.5 40.6074C19.5 41.8501 20.5074 42.8574 21.75 42.8574C22.9926 42.8574 24 41.8501 24 40.6074C24 39.3648 22.9926 38.3574 21.75 38.3574C20.5074 38.3574 19.5 39.3648 19.5 40.6074Z" fill="black"/>
<path d="M25.7852 40.6074C25.7852 41.8501 26.7925 42.8574 28.0352 42.8574C29.2778 42.8574 30.2852 41.8501 30.2852 40.6074C30.2852 39.3648 29.2778 38.3574 28.0352 38.3574C26.7925 38.3574 25.7852 39.3648 25.7852 40.6074Z" fill="black"/>
<path d="M38.3574 34.3213C38.3574 35.5639 39.3648 36.5713 40.6074 36.5713C41.8501 36.5713 42.8574 35.5639 42.8574 34.3213C42.8574 33.0786 41.8501 32.0713 40.6074 32.0713C39.3648 32.0713 38.3574 33.0786 38.3574 34.3213Z" fill="black"/>
<path d="M38.3574 21.75C38.3574 22.9926 39.3648 24 40.6074 24C41.8501 24 42.8574 22.9926 42.8574 21.75C42.8574 20.5074 41.8501 19.5 40.6074 19.5C39.3648 19.5 38.3574 20.5074 38.3574 21.75Z" fill="black"/>
<path d="M25.7852 2.89258C25.7852 4.13522 26.7925 5.14258 28.0352 5.14258C29.2778 5.14258 30.2852 4.13522 30.2852 2.89258C30.2852 1.64994 29.2778 0.642578 28.0352 0.642578C26.7925 0.642578 25.7852 1.64994 25.7852 2.89258Z" fill="black"/>
<path d="M25.7852 15.4639C25.7852 16.7065 26.7925 17.7139 28.0352 17.7139C29.2778 17.7139 30.2852 16.7065 30.2852 15.4639C30.2852 14.2212 29.2778 13.2139 28.0352 13.2139C26.7925 13.2139 25.7852 14.2212 25.7852 15.4639Z" fill="black"/>
<path d="M25.7852 28.0361C25.7852 29.2788 26.7925 30.2861 28.0352 30.2861C29.2778 30.2861 30.2852 29.2788 30.2852 28.0361C30.2852 26.7935 29.2778 25.7861 28.0352 25.7861C26.7925 25.7861 25.7852 26.7935 25.7852 28.0361Z" fill="black"/>
<path d="M32.0703 9.17871C32.0703 10.4214 33.0777 11.4287 34.3203 11.4287C35.563 11.4287 36.5703 10.4214 36.5703 9.17871C36.5703 7.93607 35.563 6.92871 34.3203 6.92871C33.0777 6.92871 32.0703 7.93607 32.0703 9.17871Z" fill="black"/>
<path d="M32.0703 15.4639C32.0703 16.7065 33.0777 17.7139 34.3203 17.7139C35.563 17.7139 36.5703 16.7065 36.5703 15.4639C36.5703 14.2212 35.563 13.2139 34.3203 13.2139C33.0777 13.2139 32.0703 14.2212 32.0703 15.4639Z" fill="black"/>
<path d="M38.3574 9.17871C38.3574 10.4214 39.3648 11.4287 40.6074 11.4287C41.8501 11.4287 42.8574 10.4214 42.8574 9.17871C42.8574 7.93607 41.8501 6.92871 40.6074 6.92871C39.3648 6.92871 38.3574 7.93607 38.3574 9.17871Z" fill="black"/>
</svg>
