<svg width="44" height="44" viewBox="0 0 44 44" fill="none" xmlns="http://www.w3.org/2000/svg">
<path d="M6.28655 12.5713H12.5723V6.28557H6.28655V12.5713Z" fill="black"/>
<path d="M6.28655 6.28564H12.5723V-7.00951e-05H6.28655V6.28564Z" fill="black"/>
<path d="M6.28571 31.4287H0V37.7144H6.28571V31.4287Z" fill="black"/>
<path d="M6.28571 37.7144H0V44.0001H6.28571V37.7144Z" fill="black"/>
<path d="M-0.000558376 12.5713H6.28516V6.28557H-0.000558376V12.5713Z" fill="black"/>
<path d="M12.5709 18.8569H6.28516V25.1426H12.5709V18.8569Z" fill="black"/>
<path d="M6.28571 12.5713H0V18.857H6.28571V12.5713Z" fill="black"/>
<path d="M12.5709 37.7144H6.28516V44.0001H12.5709V37.7144Z" fill="black"/>
<path d="M18.858 18.8569H12.5723V25.1426H18.858V18.8569Z" fill="black"/>
<path d="M18.858 25.1431H12.5723V31.4288H18.858V25.1431Z" fill="black"/>
<path d="M31.4283 18.8569H25.1426V25.1426H31.4283V18.8569Z" fill="black"/>
<path d="M37.7134 31.4287H31.4277V37.7144H37.7134V31.4287Z" fill="black"/>
<path d="M25.1431 12.5713H18.8574V18.857H25.1431V12.5713Z" fill="black"/>
<path d="M25.1431 25.1431H18.8574V31.4288H25.1431V25.1431Z" fill="black"/>
<path d="M25.1431 31.4287H18.8574V37.7144H25.1431V31.4287Z" fill="black"/>
<path d="M25.1431 37.7144H18.8574V44.0001H25.1431V37.7144Z" fill="black"/>
<path d="M31.4283 37.7144H25.1426V44.0001H31.4283V37.7144Z" fill="black"/>
<path d="M44.0006 31.4287H37.7148V37.7144H44.0006V31.4287Z" fill="black"/>
<path d="M44.0006 18.8569H37.7148V25.1426H44.0006V18.8569Z" fill="black"/>
<path d="M31.4283 0H25.1426V6.28571H31.4283V0Z" fill="black"/>
<path d="M31.4283 12.5713H25.1426V18.857H31.4283V12.5713Z" fill="black"/>
<path d="M31.4283 25.1431H25.1426V31.4288H31.4283V25.1431Z" fill="black"/>
<path d="M37.7134 6.28564H31.4277V12.5714H37.7134V6.28564Z" fill="black"/>
<path d="M37.7134 12.5713H31.4277V18.857H37.7134V12.5713Z" fill="black"/>
<path d="M44.0006 6.28564H37.7148V12.5714H44.0006V6.28564Z" fill="black"/>
</svg>
